<svg xmlns="http://www.w3.org/2000/svg" version="1.1" xmlns:xlink="http://www.w3.org/1999/xlink" xmlns:svgjs="http://svgjs.com/svgjs" width="256" height="256"><svg width="256" height="256" viewBox="0 0 256 256" fill="none" xmlns="http://www.w3.org/2000/svg">
<path d="M0 16C0 7.16344 7.16344 0 16 0H64V256H16C7.16344 256 0 248.837 0 240V16Z" fill="#F57B51"></path>
<rect x="64" width="64" height="256" fill="#FCEEE7"></rect>
<rect x="128" width="64" height="256" fill="#FBBC58"></rect>
<path d="M192 0H230.4C239.361 0 243.841 0 247.264 1.7439C250.274 3.27787 252.722 5.72556 254.256 8.73615C256 12.1587 256 16.6392 256 25.6V230.4C256 239.361 256 243.841 254.256 247.264C252.722 250.274 250.274 252.722 247.264 254.256C243.841 256 239.361 256 230.4 256H192V0Z" fill="#095D6A"></path>
</svg><style>@media (prefers-color-scheme: light) { :root { filter: none; } }
</style></svg>