<svg width="32" height="32" viewBox="0 0 32 32" fill="none" xmlns="http://www.w3.org/2000/svg">
<path fill-rule="evenodd" clip-rule="evenodd" d="M16 32C24.8366 32 32 24.8366 32 16C32 7.16344 24.8366 0 16 0C7.16344 0 0 7.16344 0 16C0 24.8366 7.16344 32 16 32ZM9.091 21.668C10.519 23.096 12.372 23.81 14.65 23.81C16.248 23.81 17.591 23.317 18.679 22.331C18.951 23.317 19.648 23.81 20.77 23.81C21.45 23.81 21.994 23.623 22.402 23.249C22.844 22.875 23.065 22.399 23.065 21.821V10.244C23.065 9.7 22.844 9.241 22.402 8.867C21.994 8.459 21.45 8.255 20.77 8.255C20.26 8.255 19.818 8.391 19.444 8.663C19.07 8.935 18.815 9.275 18.679 9.683C17.489 8.561 16.095 8 14.497 8C12.253 8 10.434 8.714 9.04 10.142C7.68 11.536 7 13.44 7 15.854C7 18.268 7.697 20.206 9.091 21.668ZM17.608 18.608C16.962 19.322 16.095 19.679 15.007 19.679C13.953 19.679 13.086 19.322 12.406 18.608C11.76 17.86 11.437 16.942 11.437 15.854C11.437 14.732 11.76 13.831 12.406 13.151C13.086 12.471 13.953 12.131 15.007 12.131C16.095 12.131 16.962 12.471 17.608 13.151C18.254 13.831 18.577 14.732 18.577 15.854C18.577 16.942 18.254 17.86 17.608 18.608Z" fill="#095D6A"/>
</svg>
