<svg width="20" height="21" viewBox="0 0 20 21" fill="none" xmlns="http://www.w3.org/2000/svg">
<path d="M5.8 0.0115051H14.2C17.4 0.0115051 20 2.61151 20 5.81151V14.2115C20 15.7498 19.3889 17.225 18.3012 18.3127C17.2135 19.4004 15.7383 20.0115 14.2 20.0115H5.8C2.6 20.0115 0 17.4115 0 14.2115V5.81151C0 4.27325 0.61107 2.798 1.69878 1.71029C2.78649 0.622575 4.26174 0.0115051 5.8 0.0115051ZM5.6 2.01151C4.64522 2.01151 3.72955 2.39079 3.05442 3.06592C2.37928 3.74105 2 4.65673 2 5.61151V14.4115C2 16.4015 3.61 18.0115 5.6 18.0115H14.4C15.3548 18.0115 16.2705 17.6322 16.9456 16.9571C17.6207 16.282 18 15.3663 18 14.4115V5.61151C18 3.62151 16.39 2.01151 14.4 2.01151H5.6ZM15.25 3.51151C15.5815 3.51151 15.8995 3.6432 16.1339 3.87762C16.3683 4.11204 16.5 4.42998 16.5 4.76151C16.5 5.09303 16.3683 5.41097 16.1339 5.64539C15.8995 5.87981 15.5815 6.01151 15.25 6.01151C14.9185 6.01151 14.6005 5.87981 14.3661 5.64539C14.1317 5.41097 14 5.09303 14 4.76151C14 4.42998 14.1317 4.11204 14.3661 3.87762C14.6005 3.6432 14.9185 3.51151 15.25 3.51151ZM10 5.01151C11.3261 5.01151 12.5979 5.53829 13.5355 6.47597C14.4732 7.41365 15 8.68542 15 10.0115C15 11.3376 14.4732 12.6094 13.5355 13.547C12.5979 14.4847 11.3261 15.0115 10 15.0115C8.67392 15.0115 7.40215 14.4847 6.46447 13.547C5.52678 12.6094 5 11.3376 5 10.0115C5 8.68542 5.52678 7.41365 6.46447 6.47597C7.40215 5.53829 8.67392 5.01151 10 5.01151ZM10 7.01151C9.20435 7.01151 8.44129 7.32758 7.87868 7.89018C7.31607 8.45279 7 9.21586 7 10.0115C7 10.8072 7.31607 11.5702 7.87868 12.1328C8.44129 12.6954 9.20435 13.0115 10 13.0115C10.7956 13.0115 11.5587 12.6954 12.1213 12.1328C12.6839 11.5702 13 10.8072 13 10.0115C13 9.21586 12.6839 8.45279 12.1213 7.89018C11.5587 7.32758 10.7956 7.01151 10 7.01151Z" fill="black"/>
</svg>
