<svg width="18" height="21" viewBox="0 0 18 21" fill="none" xmlns="http://www.w3.org/2000/svg">
<path d="M8.92856 20.0115H8.92273C5.93856 19.9915 3.6444 19.0073 2.10273 17.0873C0.731895 15.3782 0.0235622 12.9998 0.000228882 10.0198V10.0057C0.0252289 7.02317 0.732729 4.64734 2.1044 2.93734C3.6444 1.01567 5.94023 0.0315051 8.92356 0.0115051H8.93523C11.2236 0.0281718 13.1377 0.615672 14.6236 1.75984C16.0211 2.83484 17.0052 4.36817 17.5477 6.31567L15.8477 6.78984C14.9277 3.48984 12.5994 1.80317 8.92773 1.77734C6.50273 1.79567 4.6694 2.55734 3.47773 4.04151C2.36273 5.4315 1.7869 7.43984 1.7644 10.0115C1.7869 12.5832 2.36273 14.5915 3.47856 15.9815C4.67023 17.4673 6.5044 18.2298 8.92856 18.2457C11.1144 18.229 12.5602 17.7198 13.7619 16.5415C15.1344 15.1973 15.1102 13.5473 14.6702 12.5432C14.4119 11.9515 13.9427 11.4598 13.3086 11.0848C13.1486 12.2115 12.7902 13.1232 12.2386 13.8115C11.5002 14.7298 10.4552 15.2315 9.13023 15.3032C8.12856 15.3573 7.16273 15.1215 6.4144 14.6357C5.52856 14.0615 5.01023 13.1857 4.9544 12.1657C4.90023 11.174 5.2944 10.2615 6.06273 9.59734C6.79606 8.96401 7.82856 8.5915 9.04856 8.5215C9.88926 8.46902 10.7332 8.5087 11.5652 8.63984C11.4602 8.02151 11.2527 7.52984 10.9402 7.17567C10.5127 6.68734 9.85023 6.43984 8.9744 6.434H8.95023C8.2469 6.434 7.29023 6.62734 6.68273 7.53401L5.21856 6.55067C6.03523 5.33901 7.35856 4.67067 8.95023 4.67067H8.98689C11.6486 4.68734 13.2344 6.3165 13.3927 9.16067C13.4827 9.199 13.5727 9.23901 13.6602 9.27901C14.9019 9.86234 15.8102 10.7465 16.2886 11.8373C16.9527 13.354 17.0144 15.829 14.9986 17.8023C13.4569 19.3107 11.5869 19.9923 8.9344 20.0107L8.92856 20.0115ZM9.7644 10.2698C9.56273 10.2698 9.35856 10.2757 9.14856 10.2873C7.61856 10.3732 6.66523 11.0757 6.71856 12.0732C6.7744 13.1198 7.92856 13.6057 9.03856 13.5457C10.0586 13.4915 11.3869 13.0932 11.6102 10.454C11.0032 10.3274 10.3845 10.2657 9.7644 10.2698Z" fill="black"/>
</svg>
